<?xml version="1.0" encoding="utf-8" standalone="no"?>
<!DOCTYPE svg PUBLIC "-//W3C//DTD SVG 1.1//EN"
  "http://www.w3.org/Graphics/SVG/1.1/DTD/svg11.dtd">
<svg xmlns:xlink="http://www.w3.org/1999/xlink" width="295.607187pt" height="296.643pt" viewBox="0 0 295.607187 296.643" xmlns="http://www.w3.org/2000/svg" version="1.1">
 <metadata>
  <rdf:RDF xmlns:dc="http://purl.org/dc/elements/1.1/" xmlns:cc="http://creativecommons.org/ns#" xmlns:rdf="http://www.w3.org/1999/02/22-rdf-syntax-ns#">
   <cc:Work>
    <dc:type rdf:resource="http://purl.org/dc/dcmitype/StillImage"/>
    <dc:date>2026-03-08T10:02:18.826120</dc:date>
    <dc:format>image/svg+xml</dc:format>
    <dc:creator>
     <cc:Agent>
      <dc:title>Matplotlib v3.10.8, https://matplotlib.org/</dc:title>
     </cc:Agent>
    </dc:creator>
   </cc:Work>
  </rdf:RDF>
 </metadata>
 <defs>
  <style type="text/css">*{stroke-linejoin: round; stroke-linecap: butt}</style>
 </defs>
 <g id="figure_1">
  <g id="patch_1">
   <path d="M -0 296.643 
L 295.607187 296.643 
L 295.607187 0 
L -0 0 
z
" style="fill: #ffffff"/>
  </g>
  <g id="axes_1">
   <g id="patch_2">
    <path d="M 56.467188 259.08675 
L 288.407188 259.08675 
L 288.407188 31.99625 
L 56.467188 31.99625 
z
" style="fill: #ffffff"/>
   </g>
   <g id="matplotlib.axis_1">
    <g id="xtick_1">
     <g id="line2d_1">
      <defs>
       <path id="m4f37624776" d="M 0 0 
L 0 3.5 
" style="stroke: #000000; stroke-width: 0.8"/>
      </defs>
      <g>
       <use xlink:href="#m4f37624776" x="77.582439" y="259.08675" style="stroke: #000000; stroke-width: 0.8"/>
      </g>
     </g>
     <g id="text_1">
      <text style="font-size: 10px; font-family: 'Linux Libertine O', 'Linux Libertine', 'DejaVu Serif', 'Times New Roman', 'Times', serif; text-anchor: middle" x="77.582439" y="273.685187" transform="rotate(-0 77.582439 273.685187)">1.0</text>
     </g>
    </g>
    <g id="xtick_2">
     <g id="line2d_2">
      <g>
       <use xlink:href="#m4f37624776" x="124.237921" y="259.08675" style="stroke: #000000; stroke-width: 0.8"/>
      </g>
     </g>
     <g id="text_2">
      <text style="font-size: 10px; font-family: 'Linux Libertine O', 'Linux Libertine', 'DejaVu Serif', 'Times New Roman', 'Times', serif; text-anchor: middle" x="124.237921" y="273.685187" transform="rotate(-0 124.237921 273.685187)">1.2</text>
     </g>
    </g>
    <g id="xtick_3">
     <g id="line2d_3">
      <g>
       <use xlink:href="#m4f37624776" x="170.893402" y="259.08675" style="stroke: #000000; stroke-width: 0.8"/>
      </g>
     </g>
     <g id="text_3">
      <text style="font-size: 10px; font-family: 'Linux Libertine O', 'Linux Libertine', 'DejaVu Serif', 'Times New Roman', 'Times', serif; text-anchor: middle" x="170.893402" y="273.685187" transform="rotate(-0 170.893402 273.685187)">1.4</text>
     </g>
    </g>
    <g id="xtick_4">
     <g id="line2d_4">
      <g>
       <use xlink:href="#m4f37624776" x="217.548884" y="259.08675" style="stroke: #000000; stroke-width: 0.8"/>
      </g>
     </g>
     <g id="text_4">
      <text style="font-size: 10px; font-family: 'Linux Libertine O', 'Linux Libertine', 'DejaVu Serif', 'Times New Roman', 'Times', serif; text-anchor: middle" x="217.548884" y="273.685187" transform="rotate(-0 217.548884 273.685187)">1.6</text>
     </g>
    </g>
    <g id="xtick_5">
     <g id="line2d_5">
      <g>
       <use xlink:href="#m4f37624776" x="264.204365" y="259.08675" style="stroke: #000000; stroke-width: 0.8"/>
      </g>
     </g>
     <g id="text_5">
      <text style="font-size: 10px; font-family: 'Linux Libertine O', 'Linux Libertine', 'DejaVu Serif', 'Times New Roman', 'Times', serif; text-anchor: middle" x="264.204365" y="273.685187" transform="rotate(-0 264.204365 273.685187)">1.8</text>
     </g>
    </g>
    <g id="text_6">
     <text style="font-size: 10px; font-family: 'Linux Libertine O', 'Linux Libertine', 'DejaVu Serif', 'Times New Roman', 'Times', serif; text-anchor: middle" x="172.437187" y="287.363312" transform="rotate(-0 172.437187 287.363312)">Speedup (Baseline / Optimized)</text>
    </g>
   </g>
   <g id="matplotlib.axis_2">
    <g id="ytick_1">
     <g id="line2d_6">
      <defs>
       <path id="m05a2e47db5" d="M 0 0 
L -3.5 0 
" style="stroke: #000000; stroke-width: 0.8"/>
      </defs>
      <g>
       <use xlink:href="#m05a2e47db5" x="56.467188" y="259.08675" style="stroke: #000000; stroke-width: 0.8"/>
      </g>
     </g>
     <g id="text_7">
      <text style="font-size: 10px; font-family: 'Linux Libertine O', 'Linux Libertine', 'DejaVu Serif', 'Times New Roman', 'Times', serif; text-anchor: end" x="49.467188" y="262.885969" transform="rotate(-0 49.467188 262.885969)">0%</text>
     </g>
    </g>
    <g id="ytick_2">
     <g id="line2d_7">
      <g>
       <use xlink:href="#m05a2e47db5" x="56.467188" y="213.66865" style="stroke: #000000; stroke-width: 0.8"/>
      </g>
     </g>
     <g id="text_8">
      <text style="font-size: 10px; font-family: 'Linux Libertine O', 'Linux Libertine', 'DejaVu Serif', 'Times New Roman', 'Times', serif; text-anchor: end" x="49.467188" y="217.467869" transform="rotate(-0 49.467188 217.467869)">20%</text>
     </g>
    </g>
    <g id="ytick_3">
     <g id="line2d_8">
      <g>
       <use xlink:href="#m05a2e47db5" x="56.467188" y="168.25055" style="stroke: #000000; stroke-width: 0.8"/>
      </g>
     </g>
     <g id="text_9">
      <text style="font-size: 10px; font-family: 'Linux Libertine O', 'Linux Libertine', 'DejaVu Serif', 'Times New Roman', 'Times', serif; text-anchor: end" x="49.467188" y="172.049769" transform="rotate(-0 49.467188 172.049769)">40%</text>
     </g>
    </g>
    <g id="ytick_4">
     <g id="line2d_9">
      <g>
       <use xlink:href="#m05a2e47db5" x="56.467188" y="122.83245" style="stroke: #000000; stroke-width: 0.8"/>
      </g>
     </g>
     <g id="text_10">
      <text style="font-size: 10px; font-family: 'Linux Libertine O', 'Linux Libertine', 'DejaVu Serif', 'Times New Roman', 'Times', serif; text-anchor: end" x="49.467188" y="126.631669" transform="rotate(-0 49.467188 126.631669)">60%</text>
     </g>
    </g>
    <g id="ytick_5">
     <g id="line2d_10">
      <g>
       <use xlink:href="#m05a2e47db5" x="56.467188" y="77.41435" style="stroke: #000000; stroke-width: 0.8"/>
      </g>
     </g>
     <g id="text_11">
      <text style="font-size: 10px; font-family: 'Linux Libertine O', 'Linux Libertine', 'DejaVu Serif', 'Times New Roman', 'Times', serif; text-anchor: end" x="49.467188" y="81.213569" transform="rotate(-0 49.467188 81.213569)">80%</text>
     </g>
    </g>
    <g id="ytick_6">
     <g id="line2d_11">
      <g>
       <use xlink:href="#m05a2e47db5" x="56.467188" y="31.99625" style="stroke: #000000; stroke-width: 0.8"/>
      </g>
     </g>
     <g id="text_12">
      <text style="font-size: 10px; font-family: 'Linux Libertine O', 'Linux Libertine', 'DejaVu Serif', 'Times New Roman', 'Times', serif; text-anchor: end" x="49.467188" y="35.795469" transform="rotate(-0 49.467188 35.795469)">100%</text>
     </g>
    </g>
    <g id="text_13">
     <text style="font-size: 10px; font-family: 'Linux Libertine O', 'Linux Libertine', 'DejaVu Serif', 'Times New Roman', 'Times', serif; text-anchor: middle" x="14.798438" y="145.5415" transform="rotate(-90 14.798438 145.5415)">Benchmarks at or below this speedup</text>
    </g>
   </g>
   <g id="line2d_12">
    <path d="M 67.009915 256.35072 
L 67.979579 256.35072 
L 67.979579 253.61469 
L 70.046623 253.61469 
L 70.046623 250.87866 
L 71.681394 250.87866 
L 71.681394 248.14263 
L 72.28313 248.14263 
L 72.28313 245.406599 
L 72.855278 245.406599 
L 72.855278 242.670569 
L 74.109793 242.670569 
L 74.109793 239.934539 
L 74.773381 239.934539 
L 74.773381 237.198509 
L 74.977097 237.198509 
L 74.977097 234.462479 
L 75.161626 234.462479 
L 75.161626 231.726449 
L 75.275217 231.726449 
L 75.275217 228.990419 
L 75.391957 228.990419 
L 75.489869 220.782328 
L 75.697726 220.782328 
L 75.793066 212.574238 
L 76.068347 212.574238 
L 76.122992 207.102178 
L 76.478317 207.102178 
L 76.478317 204.366148 
L 76.604852 204.366148 
L 76.665753 198.894087 
L 76.783745 198.894087 
L 76.785059 193.422027 
L 76.959947 193.422027 
L 77.061893 187.949967 
L 77.260507 187.949967 
L 77.338877 177.005846 
L 77.43242 177.005846 
L 77.43242 174.269816 
L 77.558995 174.269816 
L 77.558995 171.533786 
L 77.806142 171.533786 
L 77.854241 166.061726 
L 78.197652 166.061726 
L 78.197652 163.325696 
L 78.549712 163.325696 
L 78.622011 157.853636 
L 79.092429 157.853636 
L 79.092429 155.117605 
L 79.407978 155.117605 
L 79.407978 152.381575 
L 79.950688 152.381575 
L 79.987529 146.909515 
L 80.505004 146.909515 
L 80.505004 144.173485 
L 80.815474 144.173485 
L 80.815474 141.437455 
L 81.570477 141.437455 
L 81.570477 138.701425 
L 82.026759 138.701425 
L 82.026759 135.965395 
L 82.153248 135.965395 
L 82.153248 133.229364 
L 83.303972 133.229364 
L 83.387048 127.757304 
L 85.015406 127.757304 
L 85.015406 125.021274 
L 87.293308 125.021274 
L 87.293308 122.285244 
L 87.47925 122.285244 
L 87.47925 119.549214 
L 87.828507 119.549214 
L 87.828507 116.813184 
L 89.053767 116.813184 
L 89.053767 114.077154 
L 89.226874 114.077154 
L 89.226874 111.341123 
L 93.806915 111.341123 
L 93.806915 108.605093 
L 96.45457 108.605093 
L 96.45457 105.869063 
L 99.763607 105.869063 
L 99.763607 103.133033 
L 100.156433 103.133033 
L 100.156433 100.397003 
L 100.64835 100.397003 
L 100.64835 97.660973 
L 101.317346 97.660973 
L 101.317346 94.924943 
L 107.686222 94.924943 
L 107.686222 92.188913 
L 107.848035 92.188913 
L 107.848035 89.452883 
L 119.54263 89.452883 
L 119.54263 86.716852 
L 120.343891 86.716852 
L 120.343891 83.980822 
L 121.080771 83.980822 
L 121.080771 81.244792 
L 122.216092 81.244792 
L 122.216092 78.508762 
L 124.417058 78.508762 
L 124.417058 75.772732 
L 125.680855 75.772732 
L 125.680855 73.036702 
L 131.888543 73.036702 
L 131.888543 70.300672 
L 139.051121 70.300672 
L 139.051121 67.564642 
L 151.114726 67.564642 
L 151.114726 64.828611 
L 151.766984 64.828611 
L 151.766984 62.092581 
L 152.93706 62.092581 
L 152.93706 59.356551 
L 154.449244 59.356551 
L 154.449244 56.620521 
L 158.573961 56.620521 
L 158.573961 53.884491 
L 176.419332 53.884491 
L 176.419332 51.148461 
L 186.711897 51.148461 
L 186.711897 48.412431 
L 268.590748 48.412431 
L 268.590748 45.676401 
L 269.207633 45.676401 
L 269.207633 42.94037 
L 271.626596 42.94037 
L 271.626596 40.20434 
L 273.048159 40.20434 
L 273.048159 37.46831 
L 273.41709 37.46831 
L 273.41709 34.73228 
L 277.86446 34.73228 
L 277.86446 31.99625 
L 277.86446 31.99625 
" clip-path="url(#pe245ab0c2e)" style="fill: none; stroke: #1f77b4; stroke-width: 2; stroke-linecap: square"/>
   </g>
   <g id="line2d_13">
    <path d="M 77.582439 259.08675 
L 77.582439 31.99625 
" clip-path="url(#pe245ab0c2e)" style="fill: none; stroke-dasharray: 5.55,2.4; stroke-dashoffset: 0; stroke: #cc0000; stroke-width: 1.5"/>
   </g>
   <g id="patch_3">
    <path d="M 56.467188 259.08675 
L 56.467188 31.99625 
" style="fill: none; stroke: #000000; stroke-width: 0.8; stroke-linejoin: miter; stroke-linecap: square"/>
   </g>
   <g id="patch_4">
    <path d="M 288.407188 259.08675 
L 288.407188 31.99625 
" style="fill: none; stroke: #000000; stroke-width: 0.8; stroke-linejoin: miter; stroke-linecap: square"/>
   </g>
   <g id="patch_5">
    <path d="M 56.467187 259.08675 
L 288.407188 259.08675 
" style="fill: none; stroke: #000000; stroke-width: 0.8; stroke-linejoin: miter; stroke-linecap: square"/>
   </g>
   <g id="patch_6">
    <path d="M 56.467187 31.99625 
L 288.407188 31.99625 
" style="fill: none; stroke: #000000; stroke-width: 0.8; stroke-linejoin: miter; stroke-linecap: square"/>
   </g>
   <g id="text_14">
    <text style="font-size: 10px; font-family: 'Linux Libertine O', 'Linux Libertine', 'DejaVu Serif', 'Times New Roman', 'Times', serif" transform="translate(105.637187 14.798437)">Empirical CDF of speedup</text>
    <text style="font-size: 10px; font-family: 'Linux Libertine O', 'Linux Libertine', 'DejaVu Serif', 'Times New Roman', 'Times', serif" transform="translate(83.755937 25.99625)">(on ganesh-opengl-intel backend, n=83)</text>
   </g>
  </g>
 </g>
 <defs>
  <clipPath id="pe245ab0c2e">
   <rect x="56.467188" y="31.99625" width="231.94" height="227.0905"/>
  </clipPath>
 </defs>
</svg>
